<?xml version="1.0" encoding="UTF-8" standalone="no"?>
<!-- Created with Inkscape (http://www.inkscape.org/) -->

<svg
   xmlns:dc="http://purl.org/dc/elements/1.1/"
   xmlns:cc="http://creativecommons.org/ns#"
   xmlns:rdf="http://www.w3.org/1999/02/22-rdf-syntax-ns#"
   xmlns:svg="http://www.w3.org/2000/svg"
   xmlns="http://www.w3.org/2000/svg"
   version="1.1"
   width="133.75"
   height="50"
   id="svg2"
   xml:space="preserve"><metadata
     id="metadata8"><rdf:RDF><cc:Work
         rdf:about=""><dc:format>image/svg+xml</dc:format><dc:type
           rdf:resource="http://purl.org/dc/dcmitype/StillImage" /><dc:title></dc:title></cc:Work></rdf:RDF></metadata><defs
     id="defs6"><clipPath
       id="clipPath16"><path
         d="M 0,40 107,40 107,0 0,0 0,40 z"
         id="path18" /></clipPath></defs><g
     transform="matrix(1.25,0,0,-1.25,0,50)"
     id="g10"><g
       id="g12"><g
         clip-path="url(#clipPath16)"
         id="g14"><g
           transform="translate(34.9995,20.0005)"
           id="g44"><path
             d="m 0,0 c 0,-8.285 -6.714,-15 -15,-15 -8.284,0 -15,6.715 -15,15 0,8.284 6.716,15 15,15 C -6.714,15 0,8.284 0,0"
             id="path46"
             style="fill:#663300;fill-opacity:1;fill-rule:nonzero;stroke:none" /></g><g
           transform="translate(26.0996,25.6538)"
           id="g48"><path
             d="M 0,0 C -1.688,1.113 -3.292,0.27 -4.132,-0.707 -4.445,-1.071 -4.982,-1.5 -5.997,-1.5 c -1.013,0 -1.55,0.429 -1.864,0.793 -0.84,0.977 -2.444,1.82 -4.132,0.707 -1.982,-1.307 -1.405,-3.67 -0.828,-4.35 l 6.824,-9.239 6.825,9.239 C 1.405,-3.67 1.982,-1.307 0,0"
             id="path50"
             style="fill:#ffffff;fill-opacity:1;fill-rule:nonzero;stroke:none" /></g></g></g></g></svg>